<!DOCTYPE svg PUBLIC "-//W3C//DTD SVG 20010904//EN" "http://www.w3.org/TR/2001/REC-SVG-20010904/DTD/svg10.dtd">
<svg version="1.0" xmlns="http://www.w3.org/2000/svg" width="64px" height="127px" viewBox="0 0 640 1270" preserveAspectRatio="xMidYMid meet">
<g id="layer101" fill="#252525" stroke="none">
 <path d="M241 914 l-81 -87 0 -211 0 -211 78 -78 c76 -76 102 -92 102 -62 0 8 7 15 15 15 13 0 15 27 15 185 0 171 1 185 18 185 24 0 152 131 152 155 0 28 -168 195 -196 195 -15 0 -49 -29 -103 -86z m61 -97 l-31 -32 -4 -150 -3 -150 -2 154 -2 155 27 28 c15 15 31 28 37 28 5 0 -4 -15 -22 -33z"/>
 </g>
<g id="layer102" fill="#616161" stroke="none">
 <path d="M280 952 c-78 -82 -97 -109 -34 -49 33 31 66 57 75 57 19 0 179 -161 179 -181 0 -8 -18 -32 -40 -54 -22 -21 -37 -41 -35 -44 10 -9 115 103 115 123 0 27 -168 196 -195 196 -11 0 -40 -21 -65 -48z"/>
 <path d="M272 827 l-42 -43 0 -175 c0 -160 2 -177 19 -193 18 -17 19 -13 13 179 l-5 196 33 34 c19 19 31 37 29 40 -3 2 -24 -15 -47 -38z"/>
 <path d="M312 828 c-14 -14 -16 -32 -2 -23 5 3 26 -11 47 -31 27 -25 29 -30 9 -15 -33 24 -52 27 -59 9 -4 -10 -6 -10 -6 0 -1 7 -5 10 -11 7 -6 -4 -10 -53 -10 -116 l0 -109 25 0 c24 0 25 2 25 77 l0 76 25 -23 25 -24 55 54 c30 30 55 58 55 63 0 6 -18 7 -39 4 -35 -4 -43 -1 -72 29 -35 37 -48 41 -67 22z m148 -61 c0 -2 -17 -19 -37 -38 -33 -30 -35 -30 -10 -3 15 17 24 33 20 37 -3 4 1 7 10 7 10 0 17 -1 17 -3z"/>
 <path d="M174 665 c0 -66 1 -92 3 -57 2 34 2 88 0 120 -2 31 -3 3 -3 -63z"/>
 <path d="M194 615 c0 -93 2 -133 3 -88 2 45 2 122 0 170 -1 48 -3 12 -3 -82z"/>
 <path d="M214 665 c0 -66 1 -92 3 -57 2 34 2 88 0 120 -2 31 -3 3 -3 -63z"/>
 <path d="M340 481 c0 -172 2 -201 15 -201 13 0 15 28 15 189 0 155 -3 191 -15 201 -13 11 -15 -11 -15 -189z"/>
 <path d="M230 363 c0 -5 23 -31 50 -58 l50 -49 0 57 c0 55 -1 57 -26 57 -21 0 -24 -3 -19 -21 l7 -22 -31 22 c-17 12 -31 19 -31 14z"/>
 </g>
<g id="layer103" fill="#9a9a9a" stroke="none">
 <path d="M310 985 c-10 -12 -9 -15 6 -15 22 0 194 -168 194 -190 0 -8 -19 -35 -42 -60 -33 -34 -30 -32 15 10 32 31 57 63 57 74 0 12 -35 56 -87 108 -89 89 -117 104 -143 73z"/>
 <path d="M310 825 c-10 -12 -10 -15 1 -15 7 0 26 -12 41 -27 23 -22 31 -24 41 -14 10 10 5 18 -21 42 -37 33 -45 35 -62 14z"/>
 <path d="M243 789 c-9 -9 -13 -59 -13 -174 0 -145 2 -164 18 -179 18 -16 19 -11 15 161 -5 215 -4 208 -20 192z"/>
 <path d="M194 615 c0 -88 2 -123 3 -77 2 46 2 118 0 160 -1 42 -3 5 -3 -83z"/>
 <path d="M174 650 c0 -58 1 -81 3 -52 2 28 2 76 0 105 -2 28 -3 5 -3 -53z"/>
 <path d="M214 650 c0 -58 1 -81 3 -52 2 28 2 76 0 105 -2 28 -3 5 -3 -53z"/>
 <path d="M280 650 l0 -100 25 0 c25 0 25 1 25 82 l0 81 24 -22 25 -23 29 20 c35 25 58 52 45 52 -5 0 -20 -11 -33 -25 -13 -14 -27 -25 -31 -25 -5 0 -4 11 1 25 8 21 7 25 -9 25 -15 0 -18 -5 -13 -22 5 -22 4 -22 -27 5 -56 46 -61 40 -61 -73z"/>
 <path d="M340 481 c0 -172 2 -201 15 -201 13 0 15 28 15 189 0 155 -3 191 -15 201 -13 11 -15 -11 -15 -189z"/>
 <path d="M290 295 c19 -19 35 -35 37 -35 2 0 3 16 3 35 0 24 -5 35 -15 35 -8 0 -15 -5 -15 -12 0 -9 -3 -9 -12 0 -7 7 -16 12 -22 12 -5 0 5 -16 24 -35z"/>
 </g>
<g id="layer104" fill="#e8e8e8" stroke="none">
 <path d="M280 715 c0 -20 5 -25 25 -25 14 0 25 5 25 11 0 5 5 7 11 4 6 -4 5 2 -3 14 -7 12 -23 21 -35 21 -18 0 -23 -6 -23 -25z"/>
 <path d="M270 328 c0 -2 14 -17 30 -33 l30 -29 0 32 c0 22 -5 32 -15 32 -8 0 -15 -5 -15 -11 0 -8 -5 -8 -15 1 -8 7 -15 10 -15 8z"/>
 </g>

</svg>